#!OML:ASF E:\inclinewalkrobotboard\Project 1\Capture day 1\Session 1\subject1.ASF
:FULLY-SPECIFIED
:DEGREES
17
root 9.17472 16.6731 23.1276 -166.883 4.12513 -179.158
lowerback -9.13167 1.52719 -5.4643
upperback 1.14103 2.56953 1.56659
thorax 6.02197 1.05565 5.09093
lowerneck -7.05036 0.479589 -4.26161
upperneck 31.0784 -4.39337 7.57204
head 11.4724 -2.81505 2.79952
rclavicle 1.15295e-014 -3.57812e-015
rhumerus -48.0069 -30.0524 -64.2073
rradius 29.9281
rwrist 14.9798
rhand -16.3458 -35.1701
rfingers 7.12502
rthumb 9.86652 -64.9189
lclavicle 1.15295e-014 -3.57812e-015
lhumerus -32.0205 16.9103 78.905
lradius 16.4574
lwrist -27.6418
lhand -32.0087 -19.4557
lfingers 7.12502
lthumb -5.25714 10.4591
rfemur -10.5576 1.06559 21.6262
rtibia 8.41954
rfoot -10.7266 -0.951918
rtoes -20.6757
lfemur -12.2218 -8.95944 -17.8115
ltibia 8.8422
lfoot -12.5748 2.41536
ltoes -55.9533
18
root 9.17664 16.6726 23.1265 -166.878 4.25992 -179.163
lowerback -9.13845 1.57524 -5.46997
upperback 1.11724 2.63568 1.54379
thorax 5.993 1.09016 5.07808
lowerneck -6.88196 0.444634 -4.39852
upperneck 30.9464 -4.47468 7.76515
head 11.3985 -2.85188 2.88555
rclavicle -1.61513e-015 -8.34896e-015
rhumerus -47.765 -29.6929 -64.7604
rradius 30.2231
rwrist 14.1693
rhand -17.7706 -36.0594
rfingers 7.12502
rthumb 8.49174 -65.8687
lclavicle -1.61513e-015 -8.34896e-015
lhumerus -31.7977 16.5062 79.1575
lradius 16.5961
lwrist -27.237
lhand -31.6516 -18.964
lfingers 7.12502
lthumb -4.91231 10.959
rfemur -10.5801 1.19469 21.6173
rtibia 8.42353
rfoot -10.705 -0.944587
rtoes -20.5278
lfemur -12.1703 -8.95954 -17.8238
ltibia 8.77294
lfoot -12.5974 2.57328
ltoes -55.9528
19
root 9.17984 16.6723 23.1283 -166.904 4.33791 -179.119
lowerback -9.05853 1.6249 -5.43339
upperback 1.07777 2.6937 1.53053
thorax 5.90049 1.12484 5.04556
lowerneck -6.77966 0.42264 -4.43296
upperneck 30.8991 -4.54615 7.87935
head 11.3679 -2.88201 2.92539
rclavicle -3.77939e-014 -9.54166e-015
rhumerus -47.6308 -29.4973 -65.0998
rradius 30.5724
rwrist 14.1443
rhand -18.1582 -36.352
rfingers 7.12502
rthumb 8.11766 -66.1761
lclavicle -3.77939e-014 -9.54166e-015
lhumerus -31.6278 15.6628 79.6305
lradius 16.9444
lwrist -26.3018
lhand -31.6563 -18.4489
lfingers 7.12502
lthumb -4.91689 11.474
rfemur -10.5533 1.30994 21.6772
rtibia 8.39355
rfoot -10.6912 -0.977744
rtoes -20.4109
lfemur -12.1724 -8.90524 -17.7624
ltibia 8.8342
lfoot -12.6515 2.71287
ltoes -56.3132
20
root 9.18372 16.6718 23.1298 -166.904 4.41592 -179.048
lowerback -9.04199 1.63275 -5.41086
upperback 1.05856 2.69932 1.55976
thorax 5.86958 1.12978 5.0631
lowerneck -6.82364 0.429659 -4.38242
upperneck 30.9718 -4.52843 7.77674
head 11.401 -2.88112 2.88036
rclavicle -4.89507e-015 1.5704e-014
rhumerus -47.3963 -29.2491 -65.4282
rradius 30.8898
rwrist 14.2403
rhand -17.9191 -35.8167
rfingers 7.12502
rthumb 8.34838 -65.6317
lclavicle -4.89507e-015 1.5704e-014
lhumerus -31.4791 15.0217 80.0612
lradius 17.3015
lwrist -25.5764
lhand -31.7498 -18.1504
lfingers 7.12502
lthumb -5.00711 11.7704
rfemur -10.5438 1.29721 21.7677
rtibia 8.35466
rfoot -10.6542 -0.878044
rtoes -20.2513
lfemur -12.1627 -8.84508 -17.6597
ltibia 8.83835
lfoot -12.7053 2.75014
ltoes -56.4141
21
root 9.18623 16.6712 23.1329 -166.883 4.49577 -179.026
lowerback -9.05374 1.59918 -5.44087
upperback 1.06418 2.65679 1.59627
thorax 5.88466 1.10663 5.11419
lowerneck -6.94107 0.461424 -4.37909
upperneck 31.0526 -4.44751 7.65821
head 11.4475 -2.85377 2.84537
rclavicle -1.0635e-014 2.78299e-015
rhumerus -47.0434 -28.8453 -65.8906
rradius 31.2392
rwrist 14.0008
rhand -17.7082 -35.1593
rfingers 7.12502
rthumb 8.55194 -64.9662
lclavicle -1.0635e-014 2.78299e-015
lhumerus -31.3212 14.3599 80.5581
lradius 17.8413
lwrist -24.8667
lhand -31.7341 -17.4866
lfingers 7.12502
lthumb -4.99196 12.4346
rfemur -10.5761 1.32313 21.8003
rtibia 8.3577
rfoot -10.6104 -0.823027
rtoes -20.2899
lfemur -12.1602 -8.87177 -17.6194
ltibia 8.78187
lfoot -12.7593 2.65645
ltoes -55.7224
